<svg width="21" height="20" viewBox="0 0 21 20" fill="none" xmlns="http://www.w3.org/2000/svg">
<g id="Group">
<path id="Shape" fill-rule="evenodd" clip-rule="evenodd" d="M20.02 10.2257C20.02 9.52249 19.9569 8.84636 19.8397 8.19727H10.5V12.0332H15.837C15.6071 13.2728 14.9084 14.3231 13.8581 15.0263V17.5144H17.063C18.9382 15.788 20.02 13.2458 20.02 10.2257Z" fill="#4285F4"/>
<path id="Shape_2" fill-rule="evenodd" clip-rule="evenodd" d="M10.5001 19.9168C13.1776 19.9168 15.4224 19.0288 17.0631 17.5142L13.8582 15.0261C12.9702 15.6211 11.8343 15.9727 10.5001 15.9727C7.91725 15.9727 5.73107 14.2282 4.95126 11.8843H1.63818V14.4536C3.26993 17.6946 6.62357 19.9168 10.5001 19.9168Z" fill="#34A853"/>
<path id="Shape_3" fill-rule="evenodd" clip-rule="evenodd" d="M4.95134 11.8845C4.75301 11.2895 4.64032 10.654 4.64032 10.0004C4.64032 9.34677 4.75301 8.7112 4.95134 8.1162V5.54688H1.63827C0.966641 6.88563 0.583496 8.40017 0.583496 10.0004C0.583496 11.6006 0.966641 13.1151 1.63827 14.4539L4.95134 11.8845Z" fill="#FBBC05"/>
<path id="Shape_4" fill-rule="evenodd" clip-rule="evenodd" d="M10.5001 4.02763C11.956 4.02763 13.2632 4.52797 14.291 5.51063L17.1353 2.66634C15.4179 1.06615 13.1731 0.0834961 10.5001 0.0834961C6.62357 0.0834961 3.26993 2.30573 1.63818 5.54669L4.95126 8.11601C5.73107 5.77207 7.91725 4.02763 10.5001 4.02763Z" fill="#EA4335"/>
</g>
</svg>
