<svg width="32" height="32" viewBox="0 0 32 32" fill="none" xmlns="http://www.w3.org/2000/svg">
<rect width="32" height="32" rx="16" fill="#FF0000"/>
<path fill-rule="evenodd" clip-rule="evenodd" d="M23.0428 9.8855C23.8138 10.0931 24.4217 10.701 24.6292 11.472C25.0147 12.8805 24.9999 15.8163 24.9999 15.8163C24.9999 15.8163 24.9999 18.7372 24.6292 20.1458C24.4217 20.9168 23.8138 21.5247 23.0428 21.7322C21.6342 22.1029 16 22.1029 16 22.1029C16 22.1029 10.3805 22.1029 8.95716 21.7174C8.18616 21.5098 7.57825 20.9019 7.37067 20.1309C7 18.7372 7 15.8015 7 15.8015C7 15.8015 7 12.8805 7.37067 11.472C7.57825 10.701 8.20098 10.0783 8.95716 9.87067C10.3657 9.5 16 9.5 16 9.5C16 9.5 21.6342 9.5 23.0428 9.8855ZM18.8912 15.6985L14.2059 18.397V13L18.8912 15.6985Z" fill="white"/>
</svg>
