<svg width="32" height="32" viewBox="0 0 32 32" fill="none" xmlns="http://www.w3.org/2000/svg">
<rect width="32" height="32" rx="16" fill="url(#paint0_linear_424_372)"/>
<path d="M13.0051 16.041C13.0051 14.3837 14.3479 13.0398 16.0048 13.0398C17.6616 13.0398 19.0051 14.3837 19.0051 16.041C19.0051 17.6983 17.6616 19.0422 16.0048 19.0422C14.3479 19.0422 13.0051 17.6983 13.0051 16.041ZM11.3832 16.041C11.3832 18.5942 13.4523 20.6639 16.0048 20.6639C18.5573 20.6639 20.6263 18.5942 20.6263 16.041C20.6263 13.4878 18.5573 11.4181 16.0048 11.4181C13.4523 11.4181 11.3832 13.4878 11.3832 16.041ZM19.7292 11.2348C19.7292 11.4485 19.7924 11.6574 19.911 11.8351C20.0296 12.0128 20.1983 12.1513 20.3956 12.2332C20.5929 12.315 20.81 12.3365 21.0196 12.2949C21.2291 12.2533 21.4216 12.1505 21.5727 11.9995C21.7238 11.8484 21.8267 11.656 21.8685 11.4464C21.9103 11.2369 21.889 11.0196 21.8073 10.8222C21.7256 10.6248 21.5873 10.456 21.4097 10.3372C21.2321 10.2184 21.0233 10.155 20.8097 10.1549H20.8093C20.523 10.155 20.2484 10.2688 20.0459 10.4713C19.8434 10.6738 19.7295 10.9484 19.7292 11.2348ZM12.3686 23.3692C11.4911 23.3292 11.0142 23.183 10.6972 23.0595C10.277 22.8959 9.97718 22.701 9.66195 22.3861C9.34672 22.0712 9.15159 21.7716 8.98872 21.3512C8.86516 21.0343 8.719 20.5571 8.67911 19.6794C8.63548 18.7304 8.62676 18.4453 8.62676 16.0411C8.62676 13.6369 8.6362 13.3526 8.67911 12.4028C8.71907 11.5251 8.86632 11.0488 8.98872 10.7309C9.15231 10.3106 9.34715 10.0107 9.66195 9.69537C9.97675 9.38005 10.2763 9.18486 10.6972 9.02195C11.014 8.89835 11.4911 8.75215 12.3686 8.71224C13.3173 8.6686 13.6023 8.65988 16.0048 8.65988C18.4072 8.65988 18.6925 8.66932 19.642 8.71224C20.5195 8.75222 20.9956 8.89951 21.3134 9.02195C21.7336 9.18486 22.0334 9.38048 22.3486 9.69537C22.6639 10.0103 22.8583 10.3106 23.0219 10.7309C23.1454 11.0478 23.2916 11.5251 23.3315 12.4028C23.3751 13.3526 23.3838 13.6369 23.3838 16.0411C23.3838 18.4453 23.3751 18.7296 23.3315 19.6794C23.2915 20.5571 23.1446 21.0342 23.0219 21.3512C22.8583 21.7716 22.6634 22.0715 22.3486 22.3861C22.0338 22.7007 21.7336 22.8959 21.3134 23.0595C20.9966 23.1831 20.5195 23.3293 19.642 23.3692C18.6933 23.4128 18.4083 23.4216 16.0048 23.4216C13.6012 23.4216 13.317 23.4128 12.3686 23.3692ZM12.2941 7.09258C11.3359 7.13622 10.6812 7.28819 10.1094 7.51075C9.5173 7.74057 9.01601 8.04891 8.51509 8.54918C8.01416 9.04946 7.70671 9.55168 7.47695 10.144C7.25446 10.7163 7.10253 11.3709 7.0589 12.3293C7.01455 13.2892 7.00439 13.5961 7.00439 16.041C7.00439 18.4859 7.01455 18.7928 7.0589 19.7527C7.10253 20.7112 7.25446 21.3657 7.47695 21.938C7.70671 22.53 8.01423 23.0328 8.51509 23.5328C9.01594 24.0329 9.5173 24.3408 10.1094 24.5713C10.6823 24.7938 11.3359 24.9458 12.2941 24.9894C13.2542 25.0331 13.5605 25.044 16.0048 25.044C18.449 25.044 18.7558 25.0338 19.7154 24.9894C20.6736 24.9458 21.3279 24.7938 21.9001 24.5713C22.4919 24.3408 22.9935 24.0331 23.4944 23.5328C23.9953 23.0326 24.3022 22.53 24.5326 21.938C24.755 21.3657 24.9077 20.7112 24.9506 19.7527C24.9942 18.7921 25.0044 18.4859 25.0044 16.041C25.0044 13.5961 24.9942 13.2892 24.9506 12.3293C24.907 11.3708 24.755 10.7159 24.5326 10.144C24.3022 9.55204 23.9946 9.05025 23.4944 8.54918C22.9943 8.04811 22.4919 7.74057 21.9008 7.51075C21.3279 7.28819 20.6736 7.1355 19.7161 7.09258C18.7565 7.04893 18.4497 7.03806 16.0055 7.03806C13.5613 7.03806 13.2542 7.04821 12.2941 7.09258Z" fill="white"/>
<defs>
<linearGradient id="paint0_linear_424_372" x1="31.385" y1="32" x2="-0.615039" y2="-8.6135e-07" gradientUnits="userSpaceOnUse">
<stop stop-color="#FBE18A"/>
<stop offset="0.21" stop-color="#FCBB45"/>
<stop offset="0.38" stop-color="#F75274"/>
<stop offset="0.52" stop-color="#D53692"/>
<stop offset="0.74" stop-color="#8F39CE"/>
<stop offset="1" stop-color="#5B4FE9"/>
</linearGradient>
</defs>
</svg>
