<svg width="32" height="32" viewBox="0 0 32 32" fill="none" xmlns="http://www.w3.org/2000/svg">
<rect width="32" height="32" rx="16" fill="#0A66C2"/>
<path d="M9.38668 11.4533C10.5365 11.4533 11.4687 10.5212 11.4687 9.3713C11.4687 8.22145 10.5365 7.28931 9.38668 7.28931C8.23683 7.28931 7.30469 8.22145 7.30469 9.3713C7.30469 10.5212 8.23683 11.4533 9.38668 11.4533Z" fill="white"/>
<path d="M13.3754 12.992H16.826V14.5727C16.826 14.5727 17.7623 12.7 20.31 12.7C22.5826 12.7 24.4653 13.8195 24.4653 17.232V24.428H20.8895V18.104C20.8895 16.0909 19.8148 15.8695 18.9959 15.8695C17.2963 15.8695 17.0053 17.3355 17.0053 18.3666V24.428H13.3754V12.992Z" fill="white"/>
<path d="M7.57176 12.992H11.2016V24.428H7.57176V12.992Z" fill="white"/>
</svg>
