<svg width="32" height="32" viewBox="0 0 32 32" fill="none" xmlns="http://www.w3.org/2000/svg">
<g clip-path="url(#clip0_3184_9566)">
<path d="M32 0H0V32H32V0Z" fill="#5865F2"/>
<path d="M24.3179 8.48763C22.7931 7.79178 21.1483 7.28794 19.4315 7C19.3955 7 19.3714 7.012 19.3474 7.036C19.1313 7.40791 18.9032 7.88778 18.7352 8.25966C16.8863 7.98375 15.0493 7.98375 13.2485 8.25966C13.0924 7.87578 12.8523 7.40791 12.6362 7.036C12.6242 7.012 12.5882 7 12.5641 7C10.8473 7.28794 9.2025 7.80378 7.67775 8.48763C7.66575 8.48763 7.65375 8.49959 7.64172 8.51159C4.53222 13.0824 3.67981 17.5452 4.1 21.9481C4.1 21.9721 4.112 21.9961 4.13603 22.0081C6.17703 23.4957 8.17 24.3954 10.1149 24.9953C10.151 25.0073 10.175 24.9953 10.199 24.9713C10.6552 24.3475 11.0754 23.6996 11.4236 23.0038C11.4476 22.9678 11.4236 22.9198 11.3876 22.8958C10.7393 22.6559 10.1149 22.356 9.51466 22.0201C9.46663 21.9961 9.46663 21.9241 9.50266 21.9001C9.62269 21.8041 9.75475 21.7082 9.87481 21.6122C9.89884 21.6002 9.92284 21.5882 9.94685 21.6002C13.8728 23.3637 18.1348 23.3637 22.0128 21.6002C22.0368 21.5882 22.0728 21.5882 22.0968 21.6122C22.2168 21.7082 22.3369 21.8041 22.469 21.9001C22.517 21.9361 22.505 21.9961 22.457 22.0201C21.8567 22.368 21.2324 22.6559 20.584 22.8958C20.536 22.9078 20.524 22.9558 20.548 23.0038C20.9082 23.6876 21.3164 24.3475 21.7726 24.9593C21.7966 24.9833 21.8207 24.9953 21.8567 24.9833C23.8136 24.3834 25.8066 23.4837 27.8596 22.0081C27.8716 21.9961 27.8836 21.9721 27.8956 21.9481C28.3998 16.8494 27.0552 12.4346 24.3419 8.51159C24.3419 8.51159 24.3299 8.49959 24.3179 8.48763ZM12.0119 19.2728C10.8233 19.2728 9.85081 18.2051 9.85081 16.8974C9.85081 15.5897 10.8113 14.522 12.0119 14.522C13.2245 14.522 14.1849 15.6017 14.1729 16.8974C14.1729 18.2051 13.2124 19.2728 12.0119 19.2728ZM19.9958 19.2728C18.8072 19.2728 17.8347 18.2051 17.8347 16.8974C17.8347 15.5897 18.7952 14.522 19.9958 14.522C21.2083 14.522 22.1688 15.6017 22.1568 16.8974C22.1568 18.2051 21.2083 19.2728 19.9958 19.2728Z" fill="white"/>
</g>
<defs>
<clipPath id="clip0_3184_9566">
<rect width="32" height="32" rx="16" fill="white"/>
</clipPath>
</defs>
</svg>
