<svg width="151" height="30" viewBox="0 0 151 30" fill="none" xmlns="http://www.w3.org/2000/svg">
<path d="M14.0382 6.19946H8.83521V11.4025H14.0382V6.19946Z" fill="#30C1FF"/>
<path opacity="0.9" d="M27.2072 0H17.2981C16.6383 0 16.1035 0.534826 16.1035 1.19457V7.02537H20.7565V11.6784H16.1035V28.8054C16.1035 29.4652 16.6383 30 17.2981 30H27.2072C35.4921 30 42.2087 23.2834 42.2087 14.9985C42.2087 6.7166 35.4921 0 27.2072 0ZM26.2839 20.694H20.7565V15.1697H26.2808V20.694H26.2839Z" fill="url(#paint0_linear_3672_3213)"/>
<path d="M5.11868 13.2607H0.473145V17.9063H5.11868V13.2607Z" fill="#00D9F9"/>
<path d="M14.1227 17.9236H7.62622V24.4201H14.1227V17.9236Z" fill="#0D99FF"/>
<path d="M53.2747 20.096H54.8802C56.2604 20.096 57.3448 19.6734 58.1335 18.8284C58.9221 17.9834 59.3165 16.8497 59.3165 15.4273C59.3165 14.0049 58.9221 12.8712 58.1335 12.0262C57.3448 11.1812 56.2604 10.7587 54.8802 10.7587H53.2747V20.096ZM54.8802 8.01245C57.2462 8.01245 59.1897 8.70253 60.7107 10.0827C62.2317 11.4488 62.9922 13.2303 62.9922 15.4273C62.9922 17.6102 62.2317 19.3918 60.7107 20.7719C59.1897 22.1521 57.2462 22.8422 54.8802 22.8422H49.6624V8.01245H54.8802Z" fill="#111927"/>
<path d="M72.0392 19.1031C72.5603 18.5961 72.8208 17.8778 72.8208 16.9483C72.8208 16.0188 72.5603 15.3076 72.0392 14.8147C71.5181 14.3077 70.9195 14.0542 70.2435 14.0542C69.5675 14.0542 68.969 14.3077 68.4479 14.8147C67.9268 15.3217 67.6663 16.0399 67.6663 16.9694C67.6663 17.8989 67.9268 18.6172 68.4479 19.1242C68.969 19.6171 69.5675 19.8636 70.2435 19.8636C70.9195 19.8636 71.5181 19.6101 72.0392 19.1031ZM65.5538 21.3001C64.5116 20.1734 63.9905 18.7299 63.9905 16.9694C63.9905 15.209 64.5116 13.7655 65.5538 12.6388C66.596 11.4981 67.8635 10.9277 69.3563 10.9277C70.8632 10.9277 72.018 11.484 72.8208 12.5966V11.0545H76.4332V22.8422H72.8208V21.1311C71.9476 22.3704 70.7787 22.9901 69.314 22.9901C67.8494 22.9901 66.596 22.4267 65.5538 21.3001Z" fill="#111927"/>
<path d="M84.1912 19.7791H85.4798V22.8422H83.6419C82.3181 22.8422 81.29 22.5535 80.5577 21.9761C79.8394 21.3846 79.4803 20.3776 79.4803 18.9552V14.0542H78.3818V11.0545H79.4803V8.18145H83.0927V11.0545H85.4587V14.0542H83.0927V18.9552C83.0927 19.5044 83.4588 19.7791 84.1912 19.7791Z" fill="#111927"/>
<path d="M94.7122 19.1031C95.2333 18.5961 95.4939 17.8778 95.4939 16.9483C95.4939 16.0188 95.2333 15.3076 94.7122 14.8147C94.1911 14.3077 93.5926 14.0542 92.9166 14.0542C92.2406 14.0542 91.6421 14.3077 91.121 14.8147C90.5999 15.3217 90.3394 16.0399 90.3394 16.9694C90.3394 17.8989 90.5999 18.6172 91.121 19.1242C91.6421 19.6171 92.2406 19.8636 92.9166 19.8636C93.5926 19.8636 94.1911 19.6101 94.7122 19.1031ZM88.2269 21.3001C87.1847 20.1734 86.6636 18.7299 86.6636 16.9694C86.6636 15.209 87.1847 13.7655 88.2269 12.6388C89.269 11.4981 90.5365 10.9277 92.0294 10.9277C93.5363 10.9277 94.6911 11.484 95.4939 12.5966V11.0545H99.1062V22.8422H95.4939V21.1311C94.6207 22.3704 93.4518 22.9901 91.9871 22.9901C90.5224 22.9901 89.269 22.4267 88.2269 21.3001Z" fill="#111927"/>
<path d="M101.858 8.01245H105.47V20.096H109.97V22.8422H101.858V8.01245Z" fill="#111927"/>
<path d="M114.628 22.6098L110.044 11.0545H114.142L116.762 18.7651L119.635 11.0545H123.416L115.895 28.4614H112.114L114.628 22.6098Z" fill="#111927"/>
<path d="M128.267 11.0545V12.7867C129.013 11.5474 130.203 10.9277 131.837 10.9277C133.189 10.9277 134.28 11.3784 135.111 12.2797C135.956 13.181 136.379 14.4063 136.379 15.9555V22.8422H132.788V16.4413C132.788 15.6808 132.583 15.0964 132.175 14.688C131.781 14.2655 131.231 14.0542 130.527 14.0542C129.823 14.0542 129.267 14.2655 128.858 14.688C128.464 15.0964 128.267 15.6808 128.267 16.4413V22.8422H124.654V11.0545H128.267Z" fill="#111927"/>
<path d="M142.636 11.0545V12.7867C143.382 11.5474 144.572 10.9277 146.206 10.9277C147.558 10.9277 148.65 11.3784 149.48 12.2797C150.325 13.181 150.748 14.4063 150.748 15.9555V22.8422H147.157V16.4413C147.157 15.6808 146.952 15.0964 146.544 14.688C146.15 14.2655 145.6 14.0542 144.896 14.0542C144.192 14.0542 143.636 14.2655 143.227 14.688C142.833 15.0964 142.636 15.6808 142.636 16.4413V22.8422H139.024V11.0545H142.636Z" fill="#111927"/>
<defs>
<linearGradient id="paint0_linear_3672_3213" x1="37.5445" y1="14.9876" x2="16.0821" y2="14.9876" gradientUnits="userSpaceOnUse">
<stop stop-color="#007BFF"/>
<stop offset="1" stop-color="#0D99FF"/>
</linearGradient>
</defs>
</svg>
